HIERARCHY
ROOT root
{
	OFFSET	0	13.1	24.9
	CHANNELS 6  Xposition Yposition Zposition Xrotation Yrotation Zrotation
	JOINT spine_1
	{
		OFFSET	0	9.99999	0
		CHANNELS 3  Xrotation Yrotation Zrotation
		JOINT spine_2
		{
			OFFSET	0	112	-10
			CHANNELS 3  Xrotation Yrotation Zrotation
			JOINT spine_3
			{
				OFFSET	0	206.5	19.3
				CHANNELS 3  Xrotation Yrotation Zrotation
				JOINT spine_4
				{
					OFFSET	0	110.4	14.6
					CHANNELS 3  Xrotation Yrotation Zrotation
					JOINT neck_1
					{
						OFFSET	0	71.8	-50.3
						CHANNELS 3  Xrotation Yrotation Zrotation
						JOINT neck_2
						{
							OFFSET	0	86.2	-25.8
							CHANNELS 3  Xrotation Yrotation Zrotation
							JOINT head_ee
							{
								OFFSET	0	179.8	-8.7
								CHANNELS 3  Xrotation Yrotation Zrotation
								End Site
								{
									OFFSET	1	0	0
								}
							}
						}
					}
					JOINT left_clavicle
					{
						OFFSET	-43.2	22.4	-70.8
						CHANNELS 3  Xrotation Yrotation Zrotation
						JOINT left_shoulder
						{
							OFFSET	-93.9	-5.79999	48.7
							CHANNELS 3  Xrotation Yrotation Zrotation
							JOINT left_elbow
							{
								OFFSET	-291.4	-30.8	15.2
								CHANNELS 3  Xrotation Yrotation Zrotation
								JOINT left_lowarm_twist
								{
									OFFSET	-110.7	-3.89999	13.6
									CHANNELS 3  Xrotation Yrotation Zrotation
									JOINT left_hand
									{
										OFFSET	-110.7	-3.89999	13.6
										CHANNELS 3  Xrotation Yrotation Zrotation
										JOINT left_ee
										{
											OFFSET	-80.8	-5.10001	12.1
											CHANNELS 3  Xrotation Yrotation Zrotation
											End Site
											{
												OFFSET	1	0	0
											}
										}
									}
								}
							}
						}
					}
					JOINT right_clavicle
					{
						OFFSET	43.2	22.4	-70.8
						CHANNELS 3  Xrotation Yrotation Zrotation
						JOINT right_shoulder
						{
							OFFSET	93.9	-5.79999	48.7
							CHANNELS 3  Xrotation Yrotation Zrotation
							JOINT right_elbow
							{
								OFFSET	291.4	-30.8	15.2
								CHANNELS 3  Xrotation Yrotation Zrotation
								JOINT right_lowarm_twist
								{
									OFFSET	110.7	-3.89999	13.6
									CHANNELS 3  Xrotation Yrotation Zrotation
									JOINT right_hand
									{
										OFFSET	110.7	-3.89999	13.6
										CHANNELS 3  Xrotation Yrotation Zrotation
										JOINT right_ee
										{
											OFFSET	80.8	-5.10001	12.1
											CHANNELS 3  Xrotation Yrotation Zrotation
											End Site
											{
												OFFSET	1	0	0
											}
										}
									}
								}
							}
						}
					}
				}
			}
		}
	}
	JOINT left_hip
	{
		OFFSET	-82.8	-127.5	0.300001
		CHANNELS 3  Xrotation Yrotation Zrotation
		JOINT left_knee
		{
			OFFSET	-28.2	-396.7	2.2
			CHANNELS 3  Xrotation Yrotation Zrotation
			JOINT left_ankle
			{
				OFFSET	-11.7	-411.3	35.4
				CHANNELS 3  Xrotation Yrotation Zrotation
				JOINT left_toes
				{
					OFFSET	0	-60	-88.6
					CHANNELS 3  Xrotation Yrotation Zrotation
					JOINT left_foot_ee
					{
						OFFSET	-22.5	-16.5	-42.2
						CHANNELS 3  Xrotation Yrotation Zrotation
						End Site
						{
							OFFSET	1	0	0
						}
					}
				}
			}
		}
	}
	JOINT right_hip
	{
		OFFSET	82.8	-127.5	0.300001
		CHANNELS 3  Xrotation Yrotation Zrotation
		JOINT right_knee
		{
			OFFSET	28.2	-396.7	2.2
			CHANNELS 3  Xrotation Yrotation Zrotation
			JOINT right_ankle
			{
				OFFSET	11.7	-411.3	35.4
				CHANNELS 3  Xrotation Yrotation Zrotation
				JOINT right_toes
				{
					OFFSET	0	-60	-88.6
					CHANNELS 3  Xrotation Yrotation Zrotation
					JOINT right_foot_ee
					{
						OFFSET	22.5	-16.5	-42.2
						CHANNELS 3  Xrotation Yrotation Zrotation
						End Site
						{
							OFFSET	1	0	0
						}
					}
				}
			}
		}
	}
}
MOTION
Frames: 14
Frame Time: 0.02
1240.56 742.77 -673.178 142.822 -78.6758 144.811 -3.06218 0.127804 0.668294 -3.06193 0.0850203 0.675072 -3.06058 -0.0948737 0.673758 -3.06121 0.0127219 0.680285 -8.26598 8.06763 7.25357 -8.14234 9.9783 8.93632 -0.0 0.0 -0.0 6.35371 1.45673 12.3253 2.07939 -27.2119 53.7326 1.3865 -34.4807 0.430284 -29.1802 -1.88069 3.1804 -1.7924 2.82296 -10.7465 -0.0 0.0 -0.0 10.9024 4.05497 -21.732 -24.0268 38.5472 -51.736 0.645723 17.7381 -0.100761 2.87047 -0.0922559 0.354991 0.681331 -29.0961 -15.151 0.0 0.0 0.0 -5.07989 28.8206 -1.10304 6.43628 -0.318022 -0.935633 8.46542 -22.681 -1.40587 6.63508 -0.0 -0.0 -0.0 0.0 -0.0 11.3741 8.09734 -4.57612 -51.6511 1.36898 -7.54412 26.5045 -25.1232 3.69553 -21.3276 0.0 0.0 0.0 0.0 0.0 
1256.03 740.993 -679.751 148.526 -77.5963 150.997 -2.81244 -0.0521598 0.566144 -2.81226 -0.0880787 0.561677 -2.81298 -0.229965 0.519958 -2.81332 -0.144962 0.54975 -9.0859 7.68705 7.34077 -8.96172 9.34916 8.9871 -0.0 0.0 -0.0 6.62279 1.72497 12.8497 2.76459 -27.655 52.0248 1.55098 -37.5328 0.527011 -30.2618 -1.97996 3.27724 -1.7137 0.294525 -11.3871 -0.0 0.0 -0.0 10.3826 2.8929 -20.5792 -25.0274 38.2372 -51.908 0.564456 15.622 -0.0774317 3.87269 -0.120259 0.479947 0.979698 -28.4039 -16.6326 0.0 0.0 0.0 -6.26328 29.9773 -0.719685 5.82398 -0.283254 -0.848197 10.0402 -22.892 -1.66039 7.58837 -0.0 -0.0 -0.0 0.0 -0.0 13.4563 8.5958 -4.87915 -50.0215 1.22404 -7.33922 24.9813 -21.9346 3.4499 -21.3204 0.0 0.0 0.0 0.0 0.0 
1272.84 740.896 -684.333 152.325 -76.5969 155.158 -2.74405 0.0102481 0.281885 -2.74401 -0.00770967 0.281966 -2.744 -0.0798437 0.270536 -2.7441 -0.0361158 0.27975 -9.24882 7.94743 7.37146 -9.12701 9.84672 9.08814 -0.0 0.0 -0.0 6.72146 1.80002 13.0416 4.05361 -28.3267 51.3863 1.68147 -39.7893 0.608543 -31.2663 -2.07378 3.3655 -1.9901 -0.325852 -13.5672 -0.0 0.0 -0.0 10.5878 4.2462 -21.0617 -26.5856 36.3267 -52.3529 0.466783 13.0199 -0.0532658 2.93318 -0.0940723 0.362794 0.771901 -29.2028 -15.6905 0.0 0.0 0.0 -7.27247 31.0475 -0.439129 5.74045 -0.278584 -0.83624 11.8178 -25.107 -1.98641 8.39395 -0.0 -0.0 -0.0 0.0 -0.0 15.4642 10.2432 -4.81142 -48.9609 1.13289 -7.20373 24.7665 -18.3654 3.37322 -21.1071 0.0 0.0 0.0 0.0 0.0 
1290.8 745.015 -691.595 154.116 -76.4288 157.146 -2.75106 -0.0528789 0.249706 -2.75103 -0.0686611 0.245835 -2.7513 -0.129504 0.21995 -2.75136 -0.0931419 0.237642 -8.70004 8.1911 6.28688 -8.61942 10.9646 8.04642 -0.0 0.0 -0.0 7.18684 2.01163 13.9477 5.37723 -29.5672 51.0972 1.82047 -42.0403 0.699596 -33.2536 -2.26391 3.53524 -2.12595 -1.5969 -15.1019 -0.0 0.0 -0.0 10.3031 4.70113 -20.4636 -29.0739 34.786 -52.5338 0.421141 11.7843 -0.0434626 2.64641 -0.0856965 0.327122 0.911357 -29.3364 -16.5132 0.0 0.0 0.0 -8.07864 31.1973 0.11901 5.81209 -0.282589 -0.846496 10.3836 -25.5662 -1.76555 10.0936 -0.0 -0.0 -0.0 0.0 -0.0 17.9025 11.4251 -5.18145 -49.7601 1.20134 -7.30599 23.5559 -14.2137 3.18818 -20.5618 0.0 0.0 0.0 0.0 0.0 
1305.79 748.587 -695.206 155.067 -76.1813 158.234 -2.69259 -0.131497 -0.0573781 -2.69259 -0.12758 -0.0656293 -2.69245 -0.10654 -0.0960882 -2.69244 -0.120379 -0.0780563 -8.52077 8.15191 6.23962 -8.43971 10.8947 7.97769 -0.0 0.0 -0.0 7.16182 0.881659 13.9091 4.90508 -29.5673 50.742 2.09849 -46.1047 0.893101 -34.4366 -2.37985 3.63314 -2.13423 -3.79808 -16.1851 -0.0 0.0 -0.0 10.1256 5.6122 -20.1005 -30.7488 33.1739 -53.4662 0.362316 10.1754 -0.0322575 2.70538 -0.0874333 0.334454 0.860226 -29.3023 -16.2157 0.0 0.0 0.0 -8.9962 29.4673 -0.0530914 5.96376 -0.291109 -0.868189 10.0909 -27.1517 -1.75054 11.122 -0.0 -0.0 -0.0 0.0 -0.0 20.0035 14.2293 -5.95495 -43.0982 0.675546 -6.42647 19.1237 -8.62121 2.62229 -21.4141 0.0 0.0 0.0 0.0 0.0 
1325.7 745.003 -697.739 157.697 -75.5759 161.156 -2.65317 -0.092957 -0.132226 -2.65316 -0.0843547 -0.137874 -2.65294 -0.0463759 -0.154836 -2.65297 -0.0702473 -0.145568 -7.75323 7.96832 6.44052 -7.65656 10.281 8.08112 -0.0 0.0 -0.0 6.97291 0.342638 13.5382 6.23993 -30.07 50.7505 2.48548 -50.9087 1.18323 -35.5367 -2.48948 3.72203 -2.21038 -5.00767 -17.2793 -0.0 0.0 -0.0 9.80368 6.30738 -19.4179 -33.1162 31.1455 -54.5658 0.362029 10.1675 -0.0322067 2.80998 -0.090496 0.347465 0.934438 -29.2745 -16.6256 0.0 0.0 0.0 -9.57284 30.1923 -0.34271 5.23713 -0.250813 -0.764057 12.6105 -27.4624 -2.17126 12.9405 -0.0 -0.0 -0.0 0.0 -0.0 19.9941 14.2577 -5.61454 -32.7139 0.0694149 -4.95241 11.0227 0.189119 1.57651 -22.7055 0.0 0.0 0.0 0.0 0.0 
1339.78 742.906 -698.366 157.247 -75.1929 161.046 -2.634 -0.119556 -0.294677 -2.63396 -0.100563 -0.301687 -2.63335 -0.020351 -0.317354 -2.63349 -0.0702156 -0.310158 -8.23176 7.13437 6.07546 -8.14723 9.05707 7.5712 -0.0 0.0 -0.0 6.5992 0.146033 12.7995 7.43263 -30.4959 50.9112 2.7726 -53.9323 1.41085 -37.3706 -2.67596 3.86549 -2.27371 -5.34453 -17.8823 -0.0 0.0 -0.0 9.67912 6.82887 -19.1534 -34.3101 30.4834 -54.9837 0.323388 9.10147 -0.0257394 3.3642 -0.106325 0.416488 0.941229 -29.1871 -16.6389 0.0 0.0 0.0 -11.0676 30.3505 -0.480064 4.91716 -0.233491 -0.718047 15.0805 -28.6307 -2.60323 15.1036 -0.0 -0.0 -0.0 0.0 -0.0 20.3329 14.6479 -6.06218 -21.1813 -0.279728 -3.21992 2.99161 7.07384 0.450571 -24.0788 0.0 0.0 0.0 0.0 0.0 
1352.24 739.588 -696.474 157.306 -74.6472 161.492 -2.50132 -0.142497 -0.274697 -2.50128 -0.124729 -0.283207 -2.5006 -0.049137 -0.305531 -2.50072 -0.0967731 -0.293936 -8.06615 5.97042 5.25254 -8.00139 7.43764 6.49737 -0.0 0.0 -0.0 6.3432 -0.701375 12.2851 7.73132 -29.8131 48.6722 3.24905 -58.1335 1.80626 -37.0043 -2.63835 3.83731 -2.48265 -8.99185 -21.0412 -0.0 0.0 -0.0 9.57846 7.60734 -18.9371 -34.6771 28.6325 -56.5289 0.325348 9.15569 -0.0260503 3.58513 -0.112448 0.444046 0.89377 -29.1923 -16.3727 0.0 0.0 0.0 -11.9917 30.608 -0.618845 5.10745 -0.243762 -0.745421 17.6309 -29.6794 -3.04379 16.982 -0.0 -0.0 -0.0 0.0 -0.0 21.0916 15.4159 -7.231 -12.0832 -0.30596 -1.82569 -5.3982 12.2792 -0.855118 -24.2335 0.0 0.0 0.0 0.0 0.0 
1365.1 736.496 -695.19 159.152 -73.3802 163.699 -2.48359 -0.0452621 -0.234318 -2.48356 -0.0302601 -0.236724 -2.4834 0.0304543 -0.236699 -2.48348 -0.00730993 -0.238538 -9.1909 5.16898 5.53166 -9.11691 5.88607 6.63797 -0.0 0.0 -0.0 5.73359 -0.322119 11.0882 8.54783 -29.4414 47.585 4.15237 -64.054 2.5981 -38.3648 -2.77896 3.94076 -2.69579 -8.88171 -22.5385 -0.0 0.0 -0.0 9.68389 7.99841 -19.1631 -35.2217 28.3657 -57.2369 0.249398 7.04305 -0.0153478 3.59315 -0.112669 0.445046 0.840317 -28.3791 -15.8323 0.0 0.0 0.0 -12.6814 30.6876 -0.847861 4.35882 -0.20388 -0.637534 22.8919 -30.365 -3.86671 18.6561 -0.0 -0.0 -0.0 0.0 -0.0 20.9501 16.0066 -7.57155 -4.56257 -0.160782 -0.681574 -8.28815 16.2368 -1.35899 -25.4594 0.0 0.0 0.0 0.0 0.0 
1379.21 731.715 -691.049 160.795 -72.4721 165.262 -2.52502 -0.0668532 -0.0881355 -2.52502 -0.0611094 -0.0922109 -2.52492 -0.0357875 -0.104673 -2.52493 -0.0518695 -0.0977075 -10.7745 4.84914 5.97387 -10.6868 5.18768 7.04653 -0.0 0.0 -0.0 5.66804 0.709965 10.9812 9.05578 -28.4442 45.648 5.0878 -68.333 3.45454 -39.1968 -2.86615 4.00238 -2.92849 -8.92775 -24.2682 -0.0 0.0 -0.0 9.47533 7.54499 -18.7156 -35.6335 28.0769 -58.2502 0.293156 8.26296 -0.0211756 3.62747 -0.11361 0.449329 0.856249 -26.9135 -15.4837 0.0 0.0 0.0 -13.2422 30.6891 -1.13438 3.2219 -0.146024 -0.472735 26.4202 -29.386 -4.30715 20.0762 -0.0 -0.0 -0.0 0.0 -0.0 22.2566 17.6825 -8.73421 -0.539717 -0.021847 -0.079944 -9.77249 16.6014 -1.61094 -25.496 0.0 0.0 0.0 0.0 0.0 
1392.65 725.642 -692.211 159.351 -72.0285 163.462 -2.70736 -0.0881947 -0.0627026 -2.70736 -0.084026 -0.0681876 -2.70726 -0.0637592 -0.0874339 -2.70726 -0.0767676 -0.076267 -11.9666 5.5694 6.66486 -11.8633 6.26281 7.95425 -0.0 0.0 -0.0 5.80833 1.84739 11.2717 9.90405 -27.8397 43.7598 6.53439 -72.7977 4.81975 -39.6079 -2.90956 4.03236 -2.49479 -7.91405 -20.6403 -0.0 0.0 -0.0 9.35949 7.80756 -18.4655 -36.1419 27.6609 -58.6691 0.31191 8.78357 -0.0239552 3.10427 -0.098984 0.384097 0.500655 -29.107 -14.146 0.0 0.0 0.0 -14.7957 32.0663 -0.785565 1.82699 -0.0795343 -0.269057 27.1674 -29.5078 -4.41334 18.7431 -0.0 -0.0 -0.0 0.0 -0.0 23.3289 17.4925 -8.43816 1.14147 0.0486842 0.168393 -10.9938 16.0953 -1.80792 -24.8635 0.0 0.0 0.0 0.0 0.0 
1413.46 721.579 -690.157 158.332 -71.6435 162.62 -2.75294 -0.0754581 -0.0788902 -2.75294 -0.0702852 -0.0835319 -2.75284 -0.0464682 -0.0987841 -2.75284 -0.0614861 -0.0902056 -12.7679 5.07866 6.49014 -12.6683 5.55495 7.68531 -0.0 0.0 -0.0 5.82231 2.17599 11.3028 10.1165 -28.1674 43.6247 7.83132 -75.5026 6.06772 -40.4237 -2.99634 4.09092 -3.05154 -8.81741 -25.1298 -0.0 0.0 -0.0 8.99743 7.02367 -17.6958 -36.8776 26.8223 -58.5439 0.381868 10.7121 -0.0358016 4.29973 -0.131526 0.533334 1.00412 -23.9683 -15.4468 0.0 0.0 0.0 -16.8482 32.7885 -0.278803 1.36732 -0.0587149 -0.201598 29.2329 -28.9923 -4.65123 21.133 -0.0 -0.0 -0.0 0.0 -0.0 23.8521 17.4043 -9.72607 3.16939 0.143431 0.465097 -13.2431 15.6947 -2.17669 -25.6014 0.0 0.0 0.0 0.0 0.0 
1431.15 718.083 -689.688 158.233 -71.1586 162.348 -2.80971 -0.0788261 -0.0379735 -2.80971 -0.07625 -0.0429125 -2.80965 -0.0626069 -0.0611222 -2.80965 -0.0714743 -0.0504675 -13.7969 4.80673 6.54567 -13.6946 5.14243 7.70322 -0.0 0.0 -0.0 5.90682 2.43911 11.468 11.2858 -28.8443 43.1843 8.75543 -76.9679 6.96537 -40.7323 -3.02938 4.11276 -3.25178 -9.43768 -26.9176 -0.0 0.0 -0.0 8.84013 6.71462 -17.3633 -36.7752 26.2929 -59.3076 0.365768 10.2702 -0.0328701 4.25095 -0.130259 0.527232 0.920179 -23.5638 -14.8189 0.0 0.0 0.0 -17.6087 30.7535 -0.488503 -0.0873122 0.00358539 0.0129192 31.9309 -29.8801 -5.03598 23.0069 -0.0 -0.0 -0.0 0.0 -0.0 24.6758 18.1735 -10.0744 3.21787 0.145824 0.472149 -12.7787 16.9943 -2.1217 -25.634 0.0 0.0 0.0 0.0 0.0 
1450.07 716.349 -688.324 158.219 -72.0596 161.808 -2.89512 -0.0377665 0.0106535 -2.89512 -0.0383679 0.00822873 -2.89513 -0.0391893 -0.00200101 -2.89513 -0.0390135 0.00421332 -14.0923 4.95883 6.57522 -13.992 5.45488 7.79234 -0.0 0.0 -0.0 6.34687 2.77049 12.3154 11.3562 -29.1971 43.6299 9.74155 -78.2379 7.92855 -41.9687 -3.16293 4.19844 -3.28667 -9.57902 -27.2468 -0.0 0.0 -0.0 8.81198 6.84971 -17.3027 -36.884 25.4836 -60.5538 0.345012 9.69886 -0.0292713 4.2014 -0.128967 0.521035 0.892095 -22.9701 -14.4612 0.0 0.0 0.0 -18.899 30.7841 -0.024034 -0.292931 0.0119513 0.0433646 33.1169 -29.9191 -5.17846 23.5256 -0.0 -0.0 -0.0 0.0 -0.0 25.5541 18.3674 -9.7642 3.24425 0.14713 0.475986 -13.3541 17.0479 -2.21963 -25.6591 0.0 0.0 0.0 0.0 0.0 
